<?xml version="1.0" encoding="UTF-8"?>
<svg version="1.1" xmlns="http://www.w3.org/2000/svg" width="504" height="504">
<path d="M0 0 C1.67956975 0.33432194 3.36838679 0.62458809 5.0625 0.875 C11.04582032 1.81695849 16.98948808 2.92228969 22.9375 4.0625 C23.84959229 4.23700684 24.76168457 4.41151367 25.70141602 4.59130859 C32.67160775 5.92897656 32.67160775 5.92897656 35.41796875 6.52294922 C40.57665251 7.47605702 45.83614524 7.68091109 51.0625 8.0625 C52.80950195 8.19881836 52.80950195 8.19881836 54.59179688 8.33789062 C67.32639212 9.28145674 79.82500251 8.98277125 92.5625 8.1875 C93.26687195 8.14464874 93.9712439 8.10179749 94.69696045 8.05764771 C103.65997485 7.50235947 112.45874413 6.63996701 121.30273438 5.04467773 C127.37450136 3.99058947 133.40902658 3.53897527 139.5625 3.25 C140.45533691 3.20544678 141.34817383 3.16089355 142.26806641 3.11499023 C158.31720764 2.50418039 158.31720764 2.50418039 165.25 6.3125 C166.06726563 6.75851563 166.88453125 7.20453125 167.7265625 7.6640625 C168.47679687 8.10492188 169.22703125 8.54578125 170 9 C170.64710938 9.37898437 171.29421875 9.75796875 171.9609375 10.1484375 C173.625 11.1875 173.625 11.1875 176 13 C176 13.66 176 14.32 176 15 C176.99 15.33 177.98 15.66 179 16 C180.49690032 17.97977139 181.74147157 19.87740727 183 22 C183.721875 23.093125 184.44375 24.18625 185.1875 25.3125 C189.03076943 33.18132831 189.27138533 45.61670855 186.8515625 53.95703125 C183.82153649 61.22631382 179.38278208 68.23477228 173 73 C170.7890625 73.68359375 170.7890625 73.68359375 169 74 C169 74.66 169 75.32 169 76 C163.74567937 78.45946923 158.69139902 79.90301833 153 81 C151.93341448 85.32598492 151.87121062 89.52209116 151.90234375 93.94873047 C151.90453415 95.12800362 151.90453415 95.12800362 151.9067688 96.33110046 C151.91056607 98.03455104 151.91667342 99.7379977 151.92483521 101.44143295 C151.93766079 104.15115904 151.94413173 106.86083577 151.94897461 109.57058716 C151.96231273 116.30902641 151.98635615 123.04741943 152.01037598 129.78582764 C152.03026611 135.47069168 152.04584825 141.15553725 152.05593872 146.8404274 C152.06233162 149.48503194 152.07484505 152.12955935 152.08764648 154.7741394 C152.19558411 188.75210703 152.19558411 188.75210703 139.51953125 203.48828125 C127.74196229 215.22933062 113.41402264 218.2565249 97.41625977 218.2487793 C82.79508062 218.05353058 70.59751383 214.44655085 59.625 204.625 C59.12468262 204.17898438 58.62436523 203.73296875 58.10888672 203.2734375 C54.56613931 199.94021384 52.09988011 196.34827147 50 192 C49.55527344 191.11223877 49.55527344 191.11223877 49.1015625 190.20654297 C46.44843173 184.18850401 46.55397156 178.23726382 46.625 171.75 C46.61339844 170.67492187 46.60179687 169.59984375 46.58984375 168.4921875 C46.59371094 167.45835937 46.59757813 166.42453125 46.6015625 165.359375 C46.60494629 164.42577148 46.60833008 163.49216797 46.61181641 162.53027344 C47.06848094 159.55362484 47.95389317 158.17896686 50 156 C54.13270927 154.58373446 57.90643411 154.55792017 61.9375 156.1875 C65.04563238 158.91888906 65.89132984 161.00838481 66.34375 165.13671875 C66.3953125 166.30847656 66.446875 167.48023438 66.5 168.6875 C66.66402603 171.12517912 66.83051846 173.5626941 67 176 C67.05027344 176.85851562 67.10054687 177.71703125 67.15234375 178.6015625 C67.96084352 184.87020459 71.38347151 188.14122788 76.18359375 192.046875 C85.7433104 198.6763595 96.67885849 199.46322375 108 198 C115.16482742 196.16186196 122.27548982 192.87264534 127 187 C130.39687918 181.11277075 132.12493974 175.21562953 132.12457275 168.40820312 C132.12713577 167.51665527 132.12969879 166.62510742 132.13233948 165.70654297 C132.13023972 164.74119629 132.12813995 163.77584961 132.12597656 162.78125 C132.1278447 161.75467285 132.12971283 160.7280957 132.13163757 159.67041016 C132.13563601 157.44474539 132.1377159 155.21907653 132.13809967 152.9934082 C132.1415188 148.26356951 132.16288118 143.53386785 132.18333054 138.80407715 C132.22135307 129.99957412 132.25261021 121.19521955 132.25048828 112.390625 C132.24970241 106.26386671 132.27300787 100.13761294 132.3123703 94.01098633 C132.32284704 91.67621121 132.32434211 89.34137798 132.31671906 87.0065918 C132.3071245 83.74341939 132.32822796 80.48178352 132.35644531 77.21875 C132.34624863 76.25340332 132.33605194 75.28805664 132.32554626 74.29345703 C132.39620518 69.74249835 132.51411617 67.65043395 135.30633545 63.91259766 C138.73616906 61.47729378 141.79308583 61.11152213 145.875 60.875 C152.51717995 60.41042409 158.4378681 59.70447256 163.25 54.625 C163.8275 53.75875 164.405 52.8925 165 52 C165.5775 51.2575 166.155 50.515 166.75 49.75 C168.54338928 45.80454359 168.58598919 42.26720335 168 38 C166.61785878 34.64838754 166.61785878 34.64838754 165 32 C165 31.34 165 30.68 165 30 C164.42507813 29.72414062 163.85015625 29.44828125 163.2578125 29.1640625 C161 28 161 28 158.9921875 26.7109375 C150.74243846 21.5053763 144.35648177 22.4319455 135.078125 24.42578125 C98.25143255 32.02812517 54.50129352 32.74311888 17.91845703 23.68847656 C15.07959331 23.0187764 12.25638148 22.51004629 9.375 22.0625 C3.83830884 21.18436887 -1.63924486 20.08562168 -7.125 18.9375 C-7.96756348 18.7629126 -8.81012695 18.5883252 -9.67822266 18.40844727 C-10.4676123 18.24143311 -11.25700195 18.07441895 -12.0703125 17.90234375 C-12.77945801 17.75273193 -13.48860352 17.60312012 -14.21923828 17.44897461 C-16 17 -16 17 -18 16 C-28.55376146 15.11842088 -36.41606991 16.15666627 -46 21 C-46.91394531 21.32226562 -47.82789063 21.64453125 -48.76953125 21.9765625 C-49.50558594 22.31429687 -50.24164063 22.65203125 -51 23 C-51.495 24.485 -51.495 24.485 -52 26 C-52.66 26 -53.32 26 -54 26 C-54.226875 26.515625 -54.45375 27.03125 -54.6875 27.5625 C-55.81745205 29.66098238 -56.99049449 31.31336636 -58.4375 33.1875 C-63.05380634 39.56985952 -64.51048773 47.43874633 -65.9375 55.0625 C-66.1037085 55.93592041 -66.26991699 56.80934082 -66.44116211 57.70922852 C-68.23134598 67.56322793 -69.39548297 77.50665654 -70.51733398 87.45532227 C-71.39877713 95.0357333 -72.6039125 102.40704995 -74.32641602 109.84375 C-75.01635071 113.07661543 -75.47787518 116.28178055 -75.875 119.5625 C-76.82059323 127.21539436 -78.15763578 134.78259958 -79.5 142.375 C-81.15777593 151.77843635 -82.60313915 161.13055905 -83.6015625 170.625 C-83.94565884 173.53969838 -84.42947026 176.32510463 -85.0625 179.1875 C-86.13606345 184.12256297 -86.40546082 189.03274328 -86.7043457 194.06665039 C-86.99066176 197.87576517 -87.4416318 201.62139589 -87.953125 205.40625 C-89.04926424 213.8778262 -89.74999602 222.34873491 -90.25 230.875 C-90.31637665 232.00420364 -90.31637665 232.00420364 -90.38409424 233.15621948 C-91.57133613 254.31625736 -90.87953195 275.96603687 -83.8984375 296.19140625 C-82.62015526 300.18742769 -82.35063766 303.85219803 -83 308 C-84.625 310.125 -84.625 310.125 -87 311 C-89.875 311.3125 -89.875 311.3125 -93 310 C-95.48289091 306.91367232 -97.21598809 303.52451134 -99 300 C-99.66708984 298.79150391 -99.66708984 298.79150391 -100.34765625 297.55859375 C-110.68392596 277.36019513 -112.45325144 247.53787579 -109.515625 225.33984375 C-108.95236802 220.94969616 -108.75773924 216.57988347 -108.58203125 212.16015625 C-108.13067878 202.50298684 -107.0127119 193.00844755 -105.6875 183.4375 C-105.46120767 181.76258397 -105.23530237 180.0876156 -105.00976562 178.41259766 C-103.62680616 168.21396476 -102.13757186 158.03425845 -100.52246094 147.86962891 C-99.5266183 141.56628425 -98.60804185 135.25638082 -97.74609375 128.93359375 C-97.63762115 128.13983337 -97.52914856 127.346073 -97.41738892 126.52825928 C-96.88417805 122.61784869 -96.35695063 118.70674677 -95.83789062 114.79443359 C-94.75176787 106.71875717 -93.39580003 98.77663715 -91.73852539 90.79370117 C-90.39715127 83.90325075 -89.46991226 76.95077672 -88.5 70 C-84.10391577 38.49591332 -84.10391577 38.49591332 -79.3125 29.6875 C-78.96944824 29.02943359 -78.62639648 28.37136719 -78.27294922 27.69335938 C-75.20743902 22.00006986 -71.64624304 16.5371763 -67 12 C-66.34 12 -65.68 12 -65 12 C-64.67 11.01 -64.34 10.02 -64 9 C-46.35090066 -5.84128808 -21.20940984 -7.29163885 0 0 Z " fill="#343F4D" transform="translate(156,191)"/>
<path d="M0 0 C0.98779449 0.00406357 0.98779449 0.00406357 1.99554443 0.00820923 C12.349891 0.07276486 21.50852407 0.85590346 31.25 4.4375 C32.31605469 4.82292969 33.38210937 5.20835937 34.48046875 5.60546875 C41.37562925 8.3058548 47.83148922 11.76075465 54.25 15.4375 C54.25 16.0975 54.25 16.7575 54.25 17.4375 C54.97574219 17.685 55.70148438 17.9325 56.44921875 18.1875 C59.52845264 19.56177454 61.56466039 21.18405929 64.0625 23.4375 C65.24779297 24.489375 65.24779297 24.489375 66.45703125 25.5625 C68.25 27.4375 68.25 27.4375 68.25 29.4375 C68.84039062 29.68628906 69.43078125 29.93507813 70.0390625 30.19140625 C81.10995073 36.4310058 87.87514756 55.17971432 91.19140625 66.7109375 C95.35579628 84.29391764 95.3341866 102.24967285 89.25 119.4375 C88.59 120.4275 87.93 121.4175 87.25 122.4375 C86.940625 123.365625 86.63125 124.29375 86.3125 125.25 C84.09129892 131.91360325 80.44008656 137.13516806 76.26953125 142.7109375 C75.0999096 144.29003985 73.95616159 145.8904658 72.88671875 147.5390625 C64.36654695 160.35888756 46.85993011 171.09454817 32.25 175.4375 C31.40179688 175.6953125 30.55359375 175.953125 29.6796875 176.21875 C12.06749484 181.17386231 -3.98612811 181.39158444 -21.75 177.4375 C-22.55308594 177.27121094 -23.35617188 177.10492188 -24.18359375 176.93359375 C-37.22435954 174.02106859 -50.56951002 167.04073097 -60.75 158.4375 C-60.75 157.7775 -60.75 157.1175 -60.75 156.4375 C-61.306875 156.23125 -61.86375 156.025 -62.4375 155.8125 C-65.04424018 154.26254638 -66.60704093 152.36296169 -68.46875 149.99609375 C-69.85399434 148.2385009 -69.85399434 148.2385009 -72.1875 146.1875 C-86.30258238 131.03960671 -90.92605328 110.5766333 -90.9375 90.625 C-90.94974609 89.51318359 -90.96199219 88.40136719 -90.97460938 87.25585938 C-91.01293939 65.42052962 -83.27512102 45.50523178 -68.109375 29.76953125 C-67.33078125 28.99996094 -66.5521875 28.23039062 -65.75 27.4375 C-64.88890625 26.53386719 -64.0278125 25.63023438 -63.140625 24.69921875 C-60.75 22.4375 -60.75 22.4375 -57.75 21.4375 C-57.255 19.9525 -57.255 19.9525 -56.75 18.4375 C-55.76 18.4375 -54.77 18.4375 -53.75 18.4375 C-53.75 17.7775 -53.75 17.1175 -53.75 16.4375 C-44.98168508 11.28872788 -36.52955522 6.40594291 -26.75 3.4375 C-25.88568359 3.17364502 -25.02136719 2.90979004 -24.13085938 2.63793945 C-16.0277792 0.38574312 -8.38473999 -0.06664711 0 0 Z M-53.75 42.4375 C-54.37648438 43.02789062 -55.00296875 43.61828125 -55.6484375 44.2265625 C-68.40475963 57.32921012 -72.23903625 75.23008243 -72.17675781 92.85205078 C-71.9121583 103.94166995 -69.33799241 113.78746695 -63.75 123.4375 C-63.37359375 124.10910156 -62.9971875 124.78070313 -62.609375 125.47265625 C-61.67041142 127.13567978 -60.71228811 128.78786323 -59.75 130.4375 C-59.09 130.4375 -58.43 130.4375 -57.75 130.4375 C-57.75 131.4275 -57.75 132.4175 -57.75 133.4375 C-55.43743506 136.16676391 -55.43743506 136.16676391 -52.75 138.4375 C-52.09 138.4375 -51.43 138.4375 -50.75 138.4375 C-50.42 139.4275 -50.09 140.4175 -49.75 141.4375 C-34.55366787 156.10227319 -15.85928391 160.83178564 4.6640625 160.58984375 C23.2828308 160.1237968 40.94556415 152.68015054 54.25 139.4375 C68.78225774 122.02713203 75.70191382 104.27323255 73.8125 81.4375 C72.80725384 71.6432319 70.03938009 58.17486611 62.25 51.4375 C61.816875 50.695 61.38375 49.9525 60.9375 49.1875 C52.08900944 34.7677376 35.58984357 25.3984074 19.7109375 20.68359375 C-7.84971677 14.58270589 -33.84245868 22.94042345 -53.75 42.4375 Z " fill="#333E4C" transform="translate(198.75,0.5625)"/>
<path d="M0 0 C1.14210938 -0.01160156 2.28421875 -0.02320313 3.4609375 -0.03515625 C19.29291469 0.0188164 32.65115057 4.93698874 44.625 15.375 C46.875 17.875 46.875 17.875 48.625 20.375 C49.7078125 21.7053125 49.7078125 21.7053125 50.8125 23.0625 C53.21264721 27.44897594 53.8579268 31.39203022 53.625 36.375 C52.27793704 39.45400106 50.97843805 41.02156195 48.625 43.375 C45.24036782 43.93517432 42.01236677 43.90581515 38.625 43.375 C35.45912985 40.74964426 34.77803435 39.05090171 33.875 35.0625 C33.7925 34.175625 33.71 33.28875 33.625 32.375 C32.14 31.88 32.14 31.88 30.625 31.375 C30.625 30.715 30.625 30.055 30.625 29.375 C30.04878906 29.0965625 29.47257812 28.818125 28.87890625 28.53125 C26.625 27.375 26.625 27.375 24.65234375 26.15625 C13.05443235 19.04575478 -0.18085634 19.4315561 -13.2421875 21.53125 C-17.36670865 22.6420936 -20.31740088 24.53441292 -23.66796875 27.1328125 C-25.375 28.375 -25.375 28.375 -27.375 28.375 C-29.37285435 32.4955746 -29.55335515 35.82694365 -29.375 40.375 C-28.715 40.375 -28.055 40.375 -27.375 40.375 C-27.375 41.365 -27.375 42.355 -27.375 43.375 C-26.79234375 43.66632813 -26.2096875 43.95765625 -25.609375 44.2578125 C-24.26143257 44.93178371 -22.91662746 45.61215797 -21.578125 46.3046875 C-12.59215531 50.65389683 -2.55352126 52.72174346 7.25 54.375 C17.13034894 56.07132497 26.62707144 58.96056741 35.625 63.375 C37.0790625 63.99375 37.0790625 63.99375 38.5625 64.625 C49.34769783 70.78797019 58.09392426 79.37405128 61.96484375 91.35546875 C64.09071321 101.07912018 63.27811108 110.54220484 58.625 119.375 C53.09388749 127.88537084 53.09388749 127.88537084 48.625 129.375 C48.295 130.365 47.965 131.355 47.625 132.375 C34.85956603 143.62073945 16.95402058 145.97094966 0.625 145.375 C-0.35210937 145.35695313 -1.32921875 145.33890625 -2.3359375 145.3203125 C-18.19088936 144.59770075 -31.97740677 137.75663721 -43.6875 127.3125 C-45.375 125.375 -45.375 125.375 -45.375 122.375 C-46.035 122.375 -46.695 122.375 -47.375 122.375 C-56.86563429 104.40656591 -56.86563429 104.40656591 -55.375 94.375 C-54.05899486 91.80878997 -52.89743172 90.76682379 -50.625 89.0625 C-46.43422018 87.78198394 -42.42848718 89.02383761 -38.375 90.375 C-35.19484833 94.35018959 -34.29683985 99.00244015 -33.12109375 103.8515625 C-32.44789353 106.58635199 -32.44789353 106.58635199 -30.375 109.375 C-30.375 110.365 -30.375 111.355 -30.375 112.375 C-28.89 112.87 -28.89 112.87 -27.375 113.375 C-27.375 114.035 -27.375 114.695 -27.375 115.375 C-26.6015625 115.74625 -26.6015625 115.74625 -25.8125 116.125 C-23.375 117.375 -23.375 117.375 -20.4375 119.25 C-7.69486143 126.43123275 6.34387575 127.31766945 20.25 123.625 C25.00744642 122.20115618 28.53474891 120.16434029 32.625 117.375 C33.285 117.375 33.945 117.375 34.625 117.375 C34.625 116.715 34.625 116.055 34.625 115.375 C36 113.75 36 113.75 37.625 112.375 C38.285 112.375 38.945 112.375 39.625 112.375 C41.91402673 106.67183172 43.16356214 102.52924855 41.625 96.375 C41.439375 95.55 41.25375 94.725 41.0625 93.875 C36.56896362 86.06015412 28.63687391 82.64490637 20.625 79.375 C19.449375 78.818125 18.27375 78.26125 17.0625 77.6875 C13.60506783 76.36738954 10.38763517 75.63507461 6.76171875 74.96875 C-34.86481691 67.08925633 -34.86481691 67.08925633 -45.375 52.375 C-49.8108808 44.48898969 -50.97074034 35.36109329 -48.62109375 26.546875 C-44.78514904 16.49820416 -37.69736869 9.64153498 -27.9375 5.125 C-26.42107768 4.53029406 -24.89968258 3.94819703 -23.375 3.375 C-22.30439331 2.9720874 -22.30439331 2.9720874 -21.2121582 2.56103516 C-14.10458795 0.16123407 -7.45766275 -0.07524548 0 0 Z " fill="#333E4C" transform="translate(395.375,263.625)"/>
<path d="M0 0 C3.49890004 2.11391877 4.70578686 3.11736059 6 7 C6.13156527 10.68382769 6.16982138 13.49053585 5 17 C1.14486332 19.91451184 -2.46750115 20.67529357 -7.1875 21.4375 C-7.8993042 21.55528809 -8.6111084 21.67307617 -9.34448242 21.79443359 C-11.89422221 22.21081556 -14.44654195 22.60705761 -17 23 C-18.07926758 23.16677246 -19.15853516 23.33354492 -20.27050781 23.50537109 C-24.93416593 24.22431363 -29.59776736 24.94294904 -34.2644043 25.64233398 C-35.33859619 25.80419189 -36.41278809 25.9660498 -37.51953125 26.1328125 C-38.47964111 26.27605957 -39.43975098 26.41930664 -40.42895508 26.56689453 C-42.90954446 26.94530701 -42.90954446 26.94530701 -44.94140625 27.50927734 C-47.74988538 28.17875588 -50.54570969 28.43048585 -53.41796875 28.71875 C-55.30032227 28.91017578 -55.30032227 28.91017578 -57.22070312 29.10546875 C-58.52974609 29.23566406 -59.83878906 29.36585938 -61.1875 29.5 C-63.76435167 29.76013195 -66.34117527 30.02054223 -68.91796875 30.28125 C-70.14620361 30.40443604 -71.37443848 30.52762207 -72.63989258 30.65454102 C-75.37495449 30.93573789 -78.10524907 31.23861683 -80.8359375 31.55859375 C-85.36204269 32.06799811 -89.88904042 32.34195212 -94.4375 32.5625 C-95.29206787 32.6042334 -96.14663574 32.6459668 -97.02709961 32.68896484 C-103.03902371 32.96009626 -109.04456475 33.10466706 -115.0625 33.125 C-115.81781006 33.12959229 -116.57312012 33.13418457 -117.35131836 33.13891602 C-120.50396553 33.12984522 -122.98680515 33.00439828 -126 32 C-128.28062828 28.57905758 -128.21925007 27.31812778 -128.125 23.3125 C-128.10695312 22.31863281 -128.08890625 21.32476562 -128.0703125 20.30078125 C-128.04710937 19.54152344 -128.02390625 18.78226562 -128 18 C-127.01 17.67 -126.02 17.34 -125 17 C-125 16.34 -125 15.68 -125 15 C-122.60512365 13.80256182 -121.0379894 13.84442055 -118.36328125 13.7890625 C-117.40502441 13.76271729 -116.44676758 13.73637207 -115.45947266 13.70922852 C-114.42097168 13.68143311 -113.3824707 13.6536377 -112.3125 13.625 C-100.95449348 13.24173343 -89.8757999 11.96749265 -78.63525391 10.36425781 C-74.70153079 9.82051917 -70.75992791 9.36875003 -66.8125 8.9375 C-66.09908447 8.85822266 -65.38566895 8.77894531 -64.65063477 8.69726562 C-60.71304742 8.2676945 -56.77389254 7.88566995 -52.828125 7.5390625 C-44.89219172 6.82915987 -37.3653001 6.12989574 -29.73046875 3.7265625 C-24.9664587 2.45888601 -20.07440545 2.00049408 -15.1875 1.4296875 C-2.33401579 -0.30301258 -2.33401579 -0.30301258 0 0 Z " fill="#343F4D" transform="translate(266,250)"/>
<path d="M0 0 C0.99 0 1.98 0 3 0 C3.05862345 17.61484224 2.9415011 35.22534396 2.68261719 52.83813477 C2.6423474 55.61218323 2.60794716 58.38622023 2.578125 61.16040039 C2.53443376 65.22041463 2.47492356 69.28005013 2.4140625 73.33984375 C2.40251129 74.58539536 2.39096008 75.83094696 2.37905884 77.11424255 C2.35918915 78.25466507 2.33931946 79.39508759 2.31884766 80.57006836 C2.30552399 81.57388046 2.29220032 82.57769257 2.2784729 83.61192322 C2 86 2 86 0 88 C0 58.96 0 29.92 0 0 Z " fill="#48525C" transform="translate(305,270)"/>
<path d="M0 0 C0 0.99 0 1.98 0 3 C-4.93768088 3.8490393 -9.87743539 4.68442092 -14.81933594 5.50854492 C-16.49147986 5.78920569 -18.1630601 6.07325102 -19.83398438 6.36108398 C-31.56462945 8.3786136 -43.10231538 9.59303514 -55 10 C-55 9.34 -55 8.68 -55 8 C-49.34594011 6.65813786 -43.8699267 5.86983901 -38.0625 5.5625 C-32.69999752 5.23890071 -28.05440774 4.31784796 -22.93359375 2.765625 C-15.57633665 0.84548866 -7.59961906 -0.18782328 0 0 Z " fill="#424B56" transform="translate(259,251)"/>
<path d="M0 0 C0.33 0.66 0.66 1.32 1 2 C-0.07507629 3.29854721 -1.16043736 4.58858361 -2.25 5.875 C-2.85328125 6.59429687 -3.4565625 7.31359375 -4.078125 8.0546875 C-5.97087634 9.97052118 -7.53657727 10.96449045 -10 12 C-10 12.66 -10 13.32 -10 14 C-11.96761631 15.44982255 -13.92065663 16.72385397 -16 18 C-16.84304687 18.53753906 -17.68609375 19.07507813 -18.5546875 19.62890625 C-19.44414062 20.18449219 -20.33359375 20.74007812 -21.25 21.3125 C-22.10078125 21.84488281 -22.9515625 22.37726563 -23.828125 22.92578125 C-24.54484375 23.28027344 -25.2615625 23.63476562 -26 24 C-26.66 23.67 -27.32 23.34 -28 23 C-25.11431165 19.89703629 -22.18883169 17.74031085 -18.5625 15.5625 C-14.45399535 13.02070512 -11.28639256 10.49841788 -8 7 C-7.34 7 -6.68 7 -6 7 C-5.7525 6.401875 -5.505 5.80375 -5.25 5.1875 C-3.83629988 2.71352479 -2.34944617 1.56629745 0 0 Z " fill="#3A444D" transform="translate(259,133)"/>
<path d="M0 0 C0 0.66 0 1.32 0 2 C-12.64782281 5.34053792 -24.95545255 6.23959373 -38 6 C-37.67 5.34 -37.34 4.68 -37 4 C-30.50927229 2.61006639 -23.60476723 2.87352573 -17 3 C-16.67 2.34 -16.34 1.68 -16 1 C-14.88625 1.020625 -13.7725 1.04125 -12.625 1.0625 C-8.25049777 0.98707755 -4.5410027 -0.08409264 0 0 Z " fill="#3E4755" transform="translate(296,212)"/>
<path d="M0 0 C0.66 0 1.32 0 2 0 C3.0411278 3.12338341 2.9769553 4.39452596 2.51171875 7.5703125 C2.38216797 8.4675 2.25261719 9.3646875 2.11914062 10.2890625 C1.97669922 11.22492188 1.83425781 12.16078125 1.6875 13.125 C1.55666016 14.03765625 1.42582031 14.9503125 1.29101562 15.890625 C0.4398119 21.66400677 -0.66957361 27.31809167 -2 33 C-2.66 33 -3.32 33 -4 33 C-4.18296762 27.32800385 -3.80126651 22.37019072 -2.578125 16.83984375 C-1.44487076 11.27311516 -0.76223028 5.62752993 0 0 Z " fill="#3E4958" transform="translate(83,271)"/>
<path d="M0 0 C0 0.33 0 0.66 0 1 C-0.84304688 1.13277344 -1.68609375 1.26554688 -2.5546875 1.40234375 C-3.65039062 1.57894531 -4.74609375 1.75554687 -5.875 1.9375 C-6.96554687 2.11152344 -8.05609375 2.28554687 -9.1796875 2.46484375 C-11.93821546 2.85551159 -11.93821546 2.85551159 -14 4 C-16.2072923 4.07092842 -18.41667452 4.08415025 -20.625 4.0625 C-21.81351562 4.05347656 -23.00203125 4.04445312 -24.2265625 4.03515625 C-25.14179688 4.02355469 -26.05703125 4.01195312 -27 4 C-26.67 3.34 -26.34 2.68 -26 2 C-23.31767916 1.3204388 -20.72120577 0.77399773 -18 0.3125 C-17.22922119 0.17803467 -16.45844238 0.04356934 -15.66430664 -0.0949707 C-10.18551506 -0.97894477 -5.47819583 -1.09563917 0 0 Z " fill="#444D59" transform="translate(293,196)"/>
<path d="M0 0 C-0.33 0.99 -0.66 1.98 -1 3 C-9.58 3 -18.16 3 -27 3 C-27.33 2.34 -27.66 1.68 -28 1 C-24.83350749 0.82991412 -21.6667838 0.66456601 -18.5 0.5 C-17.1696875 0.42845703 -17.1696875 0.42845703 -15.8125 0.35546875 C-10.53287287 0.08372324 -5.28655326 -0.04940704 0 0 Z " fill="#484F5B" transform="translate(216,160)"/>
<path d="M0 0 C0.73025391 -0.00386719 1.46050781 -0.00773437 2.21289062 -0.01171875 C7.161202 -0.00295292 11.91370175 0.42596424 16.8125 1.125 C16.8125 1.455 16.8125 1.785 16.8125 2.125 C16.1512915 2.15005615 15.49008301 2.1751123 14.80883789 2.20092773 C11.83067695 2.31653102 8.8528608 2.43941754 5.875 2.5625 C4.31362305 2.62147461 4.31362305 2.62147461 2.72070312 2.68164062 C1.23666992 2.74448242 1.23666992 2.74448242 -0.27734375 2.80859375 C-1.65200806 2.86358032 -1.65200806 2.86358032 -3.05444336 2.91967773 C-5.1695728 2.89503864 -5.1695728 2.89503864 -6.1875 4.125 C-8.18708364 4.16580783 -10.18795254 4.16754356 -12.1875 4.125 C-11.8575 3.135 -11.5275 2.145 -11.1875 1.125 C-7.42712409 -0.12845864 -3.91512801 -0.02019842 0 0 Z " fill="#3A4250" transform="translate(390.1875,263.875)"/>
<path d="M0 0 C-0.99 1.485 -0.99 1.485 -2 3 C-4.33837891 3.34057617 -4.33837891 3.34057617 -7.2265625 3.29296875 C-8.2578125 3.28330078 -9.2890625 3.27363281 -10.3515625 3.26367188 C-11.43179688 3.23853516 -12.51203125 3.21339844 -13.625 3.1875 C-14.71296875 3.17396484 -15.8009375 3.16042969 -16.921875 3.14648438 C-19.61507409 3.11104754 -22.30729374 3.06164331 -25 3 C-19.63261254 -2.36738746 -7.27008084 -0.08519626 0 0 Z " fill="#444E59" transform="translate(264,199)"/>
<path d="M0 0 C0.66 0 1.32 0 2 0 C2 6.93 2 13.86 2 21 C1.34 20.67 0.68 20.34 0 20 C-0.74486144 17.08015959 -0.93800318 14.05629304 -1.25 11.0625 C-1.353125 10.22525391 -1.45625 9.38800781 -1.5625 8.52539062 C-1.65015625 7.72423828 -1.7378125 6.92308594 -1.828125 6.09765625 C-1.9096582 5.36039307 -1.99119141 4.62312988 -2.07519531 3.86352539 C-2 2 -2 2 0 0 Z " fill="#414F59" transform="translate(48,433)"/>
<path d="M0 0 C-0.33 0.66 -0.66 1.32 -1 2 C-3.94921875 2.6328125 -3.94921875 2.6328125 -7.6875 3.125 C-8.90824219 3.29257812 -10.12898437 3.46015625 -11.38671875 3.6328125 C-14.62610204 3.96200388 -17.74776451 4.06994055 -21 4 C-20.67 3.34 -20.34 2.68 -20 2 C-13.49710284 -0.12822089 -6.77299898 -0.25939145 0 0 Z " fill="#444F5A" transform="translate(191,261)"/>
<path d="M0 0 C0.99 0 1.98 0 3 0 C2.67 7.26 2.34 14.52 2 22 C1.34 21.67 0.68 21.34 0 21 C0 14.07 0 7.14 0 0 Z " fill="#515866" transform="translate(305,270)"/>
<path d="M0 0 C0.33 0 0.66 0 1 0 C1.68897156 8.26765866 -0.47993621 13.21990432 -5 20 C-5.66 20 -6.32 20 -7 20 C-5.74875706 15.09929847 -4.05654063 10.6899335 -1.90234375 6.11328125 C-1.03687736 4.08636646 -0.47057921 2.1491401 0 0 Z " fill="#3E4651" transform="translate(305,369)"/>
<path d="M0 0 C1.98 0.99 1.98 0.99 4 2 C4 2.66 4 3.32 4 4 C4.66 4 5.32 4 6 4 C7.3671875 5.390625 7.3671875 5.390625 8.875 7.25 C11.1327034 9.97805828 13.444064 12.54236923 16 15 C10.29709328 14.01981291 6.10842634 9.64138966 2.59375 5.23828125 C0 1.4125 0 1.4125 0 0 Z " fill="#3D4650" transform="translate(208,385)"/>
<path d="M0 0 C0.66 0 1.32 0 2 0 C2.959938 2.06175364 3.91788424 4.12443469 4.875 6.1875 C5.67550781 7.91033203 5.67550781 7.91033203 6.4921875 9.66796875 C7.73886913 12.42294137 8.90661592 15.18161677 10 18 C5.21697448 16.16429724 4.13348863 12.98767532 2.0390625 8.5546875 C0.88340583 5.71333614 0.24156326 3.05980129 0 0 Z " fill="#3D4A55" transform="translate(128,111)"/>
<path d="M0 0 C0.69738281 0.00451172 1.39476562 0.00902344 2.11328125 0.01367188 C3.82555803 0.0253998 5.53779033 0.04333347 7.25 0.0625 C6.92 0.7225 6.59 1.3825 6.25 2.0625 C-3.155 2.5575 -3.155 2.5575 -12.75 3.0625 C-11.75 1.0625 -11.75 1.0625 -10.171875 0.44140625 C-6.78082655 -0.08912875 -3.42142682 -0.04204022 0 0 Z " fill="#3C4852" transform="translate(396.75,280.9375)"/>
<path d="M0 0 C-4.11855511 3.61629229 -8.08541135 6.54270567 -13 9 C-13.66 8.67 -14.32 8.34 -15 8 C-11.29230481 3.82884292 -5.73708737 -1.91236246 0 0 Z " fill="#404F59" transform="translate(246,148)"/>
<path d="M0 0 C0.99 0.33 1.98 0.66 3 1 C2.85795259 2.58367747 2.71119847 4.16693318 2.5625 5.75 C2.48128906 6.63171875 2.40007812 7.5134375 2.31640625 8.421875 C2.03761535 10.69350452 1.61209423 12.79851823 1 15 C0.34 15 -0.32 15 -1 15 C-0.67 10.05 -0.34 5.1 0 0 Z " fill="#424A59" transform="translate(69,360)"/>
<path d="M0 0 C4.56589147 1.44186047 4.56589147 1.44186047 6.3125 3.6875 C7.43384457 7.45929536 7.78835724 11.42328553 6 15 C5.34 15 4.68 15 4 15 C4.04640625 14.31292969 4.0928125 13.62585938 4.140625 12.91796875 C4.17671875 12.01691406 4.2128125 11.11585938 4.25 10.1875 C4.31960938 8.84751953 4.31960938 8.84751953 4.390625 7.48046875 C4.25162354 4.83571214 4.25162354 4.83571214 1.984375 3.30078125 C1.32953125 2.87152344 0.6746875 2.44226563 0 2 C0 1.34 0 0.68 0 0 Z " fill="#424B55" transform="translate(265,251)"/>
<path d="M0 0 C1.24752897 3.74258691 0.5279335 4.46162767 -1 8 C-1.68679942 10.32748694 -2.35761043 12.65986656 -3 15 C-3.33 15 -3.66 15 -4 15 C-4.38289206 5.23625255 -4.38289206 5.23625255 -2 1 C-1.34 0.67 -0.68 0.34 0 0 Z " fill="#3E4C55" transform="translate(113,64)"/>
<path d="M0 0 C0.66 0 1.32 0 2 0 C2.08333357 4.8333472 1.95261487 9.23692563 1 14 C0.34 14 -0.32 14 -1 14 C-1.02685938 11.85423363 -1.04633088 9.70837355 -1.0625 7.5625 C-1.07410156 6.36753906 -1.08570313 5.17257812 -1.09765625 3.94140625 C-1 1 -1 1 0 0 Z " fill="#4B5361" transform="translate(65,397)"/>
<path d="M0 0 C0.66 0 1.32 0 2 0 C2.21824777 6.0018137 1.5056904 11.19233704 0 17 C-0.66 17 -1.32 17 -2 17 C-1.85786703 15.10388566 -1.71113093 13.20811606 -1.5625 11.3125 C-1.48128906 10.25675781 -1.40007812 9.20101563 -1.31640625 8.11328125 C-1.03548319 5.34913703 -0.59843148 2.71054259 0 0 Z " fill="#414C59" transform="translate(76,316)"/>
<path d="M0 0 C7.26153846 0.36923077 7.26153846 0.36923077 11 3.5625 C11.99 4.7690625 11.99 4.7690625 13 6 C12.01 6.495 12.01 6.495 11 7 C8.3984375 5.78515625 8.3984375 5.78515625 5.375 4.0625 C4.37210937 3.49660156 3.36921875 2.93070312 2.3359375 2.34765625 C1.56507813 1.90292969 0.79421875 1.45820313 0 1 C0 0.67 0 0.34 0 0 Z " fill="#3C4952" transform="translate(420,324)"/>
<path d="M0 0 C0 0.66 0 1.32 0 2 C-4.96073422 3.32286246 -9.91111512 3.08893197 -15 3 C-14.67 2.34 -14.34 1.68 -14 1 C-9.31604754 -0.14242743 -4.78644729 -0.08252495 0 0 Z " fill="#424E59" transform="translate(228,274)"/>
<path d="M0 0 C4.29 0 8.58 0 13 0 C13.33 0.99 13.66 1.98 14 3 C7.07 2.505 7.07 2.505 0 2 C0 1.34 0 0.68 0 0 Z " fill="#3D4753" transform="translate(205,217)"/>
<path d="M0 0 C4.56454251 0.54339792 7.9728176 1.79463821 12 4 C12 4.33 12 4.66 12 5 C7.82851735 5.19402245 4.71055417 5.01430083 1 3 C0.67 2.01 0.34 1.02 0 0 Z " fill="#3D4D57" transform="translate(226,401)"/>
<path d="M0 0 C0.33 0 0.66 0 1 0 C1.62402869 8.26838016 1.62402869 8.26838016 -0.8125 11.125 C-3 12 -3 12 -6 11 C-5.34 11 -4.68 11 -4 11 C-4 10.34 -4 9.68 -4 9 C-3.34 9 -2.68 9 -2 9 C-2 7.68 -2 6.36 -2 5 C-1.34 5 -0.68 5 0 5 C0 3.35 0 1.7 0 0 Z " fill="#20303B" transform="translate(72,490)"/>
<path d="M0 0 C3.96 0.33 7.92 0.66 12 1 C11.67 1.66 11.34 2.32 11 3 C7.04 3 3.08 3 -1 3 C-0.67 2.01 -0.34 1.02 0 0 Z " fill="#3E4853" transform="translate(247,406)"/>
<path d="M0 0 C-0.17625835 2.37948772 -0.69719773 3.70225849 -2.40234375 5.37890625 C-3.90649092 6.62115486 -5.45129851 7.81376056 -7 9 C-7.66 8.67 -8.32 8.34 -9 8 C-8.34 7.01 -7.68 6.02 -7 5 C-6.34 5 -5.68 5 -5 5 C-5 4.34 -5 3.68 -5 3 C-2.46153846 0 -2.46153846 0 0 0 Z " fill="#3C4A55" transform="translate(435,376)"/>
<path d="M0 0 C3.96 0 7.92 0 12 0 C12 0.66 12 1.32 12 2 C11.030625 1.979375 10.06125 1.95875 9.0625 1.9375 C6.12534105 1.64381501 6.12534105 1.64381501 5 3 C3.00041636 3.04080783 0.99954746 3.04254356 -1 3 C-0.67 2.01 -0.34 1.02 0 0 Z " fill="#424A56" transform="translate(379,265)"/>
<path d="M0 0 C-2.71182212 2.60334924 -3.89133813 2.99456691 -7.75 3.1875 C-8.8225 3.125625 -9.895 3.06375 -11 3 C-11 2.34 -11 1.68 -11 1 C-6.87831311 -0.62950412 -4.29299643 -1.26264601 0 0 Z " fill="#4E5A65" transform="translate(244,254)"/>
<path d="M0 0 C4.03321763 1.21934486 7.54269479 2.55954927 11 5 C11 5.66 11 6.32 11 7 C3.16901408 5.04225352 3.16901408 5.04225352 0 2 C0 1.34 0 0.68 0 0 Z " fill="#3E4A53" transform="translate(150,165)"/>
<path d="M0 0 C0.66 0 1.32 0 2 0 C2.22151549 1.79008467 2.42682213 3.58218162 2.625 5.375 C2.74101563 6.37273437 2.85703125 7.37046875 2.9765625 8.3984375 C2.98429687 9.25695312 2.99203125 10.11546875 3 11 C2.34 11.66 1.68 12.32 1 13 C1.33 11.35 1.66 9.7 2 8 C1.34 8 0.68 8 0 8 C0 5.36 0 2.72 0 0 Z " fill="#44525B" transform="translate(65,466)"/>
<path d="M0 0 C2.64 0.33 5.28 0.66 8 1 C8 1.33 8 1.66 8 2 C5.71059044 2.38854209 3.41835426 2.7604628 1.125 3.125 C-0.78925781 3.43824219 -0.78925781 3.43824219 -2.7421875 3.7578125 C-4.35480469 3.87769531 -4.35480469 3.87769531 -6 4 C-6.66 3.34 -7.32 2.68 -8 2 C-5.36 2 -2.72 2 0 2 C0 1.34 0 0.68 0 0 Z " fill="#3B565F" transform="translate(285,195)"/>
<path d="M0 0 C0 0.66 0 1.32 0 2 C-3.82320557 3.42258812 -6.91281305 4.24042276 -11 4 C-11 3.34 -11 2.68 -11 2 C-7.12315913 0.80712589 -4.08378077 0 0 0 Z " fill="#404953" transform="translate(226,175)"/>
<path d="M0 0 C-1.63412443 1.70840281 -2.86906094 2.93453047 -5 4 C-6.99960012 4.039992 -9.00047242 4.04346799 -11 4 C-11 3.34 -11 2.68 -11 2 C-7.17679443 0.57741188 -4.08718695 -0.24042276 0 0 Z " fill="#49535D" transform="translate(228,157)"/>
<path d="M0 0 C-0.1135629 1.64666203 -0.24117381 3.29236082 -0.375 4.9375 C-0.47941406 6.31228516 -0.47941406 6.31228516 -0.5859375 7.71484375 C-0.72257812 8.46894531 -0.85921875 9.22304688 -1 10 C-1.99 10.495 -1.99 10.495 -3 11 C-3 7.7 -3 4.4 -3 1 C-1 0 -1 0 0 0 Z " fill="#3D4953" transform="translate(75,338)"/>
<path d="M0 0 C0 0.66 0 1.32 0 2 C-3.21451269 3.60725635 -6.43612536 3.05748185 -10 3 C-10 2.34 -10 1.68 -10 1 C-6.61981469 -0.04005702 -3.5219721 -0.08004482 0 0 Z " fill="#4C5561" transform="translate(214,258)"/>
<path d="M0 0 C4.30840713 1.07710178 7.63576723 2.03947516 11 5 C6.6822542 4.49202991 2.96697886 3.80317221 -1 2 C-0.67 1.34 -0.34 0.68 0 0 Z " fill="#414853" transform="translate(163,171)"/>
<path d="M0 0 C0.66 0 1.32 0 2 0 C0.50902342 3.7952131 -1.75700849 5.61042731 -5 8 C-5.66 7.67 -6.32 7.34 -7 7 C-4.66666667 4.66666667 -2.33333333 2.33333333 0 0 Z " fill="#404A54" transform="translate(362,272)"/>
<path d="M0 0 C0 0.99 0 1.98 0 3 C-1.134375 3.12375 -2.26875 3.2475 -3.4375 3.375 C-5.2009375 3.684375 -5.2009375 3.684375 -7 4 C-7.33 4.66 -7.66 5.32 -8 6 C-8 5.34 -8 4.68 -8 4 C-8.66 3.67 -9.32 3.34 -10 3 C-8.70990357 2.49596232 -7.41786211 1.99690074 -6.125 1.5 C-5.04605469 1.08234375 -5.04605469 1.08234375 -3.9453125 0.65625 C-2 0 -2 0 0 0 Z " fill="#293A41" transform="translate(378,266)"/>
<path d="M0 0 C3.3 0 6.6 0 10 0 C9.67 0.66 9.34 1.32 9 2 C6.35139573 2.59355614 3.70802678 2.74209269 1 3 C0.67 2.01 0.34 1.02 0 0 Z " fill="#3E4854" transform="translate(253,390)"/>
<path d="M0 0 C2.97 0.99 5.94 1.98 9 3 C8.67 3.66 8.34 4.32 8 5 C3.545 4.01 3.545 4.01 -1 3 C-0.67 2.01 -0.34 1.02 0 0 Z " fill="#3D4A54" transform="translate(240,387)"/>
<path d="M0 0 C2.31 0 4.62 0 7 0 C7 0.66 7 1.32 7 2 C4.29120665 3.35439668 1.99066732 3.06501451 -1 3 C-0.67 2.01 -0.34 1.02 0 0 Z " fill="#454D5C" transform="translate(289,212)"/>
<path d="M0 0 C2.39763185 2.39763185 2.34280586 3.33273498 2.625 6.625 C2.69976562 7.44226563 2.77453125 8.25953125 2.8515625 9.1015625 C2.90054688 9.72804688 2.94953125 10.35453125 3 11 C0.60236815 8.60236815 0.65719414 7.66726502 0.375 4.375 C0.30023438 3.55773437 0.22546875 2.74046875 0.1484375 1.8984375 C0.09945312 1.27195312 0.05046875 0.64546875 0 0 Z " fill="#454E58" transform="translate(68,479)"/>
<path d="M0 0 C0.66 0 1.32 0 2 0 C2 2.64 2 5.28 2 8 C1.34 8 0.68 8 0 8 C0 6.35 0 4.7 0 3 C-0.66 2.67 -1.32 2.34 -2 2 C-1.34 1.34 -0.68 0.68 0 0 Z " fill="#495963" transform="translate(48,433)"/>
<path d="M0 0 C2.97 0 5.94 0 9 0 C9 0.66 9 1.32 9 2 C2.25 3.125 2.25 3.125 0 2 C0 1.34 0 0.68 0 0 Z " fill="#404E58" transform="translate(248,217)"/>
<path d="M0 0 C0.66 0 1.32 0 2 0 C1.67 3.3 1.34 6.6 1 10 C0.34 9.34 -0.32 8.68 -1 8 C-0.96712417 5.27130593 -0.43602229 2.7033382 0 0 Z " fill="#3C4453" transform="translate(127,69)"/>
<path d="M0 0 C0.99 0.33 1.98 0.66 3 1 C1.36587557 2.70840281 0.13093906 3.93453047 -2 5 C-2.33 5.99 -2.66 6.98 -3 8 C-3.75 6.25 -3.75 6.25 -4 4 C-2.0625 1.75 -2.0625 1.75 0 0 Z " fill="#3B4851" transform="translate(294,253)"/>
<path d="M0 0 C0.78375 0.04125 1.5675 0.0825 2.375 0.125 C2.375 1.115 2.375 2.105 2.375 3.125 C0.065 2.795 -2.245 2.465 -4.625 2.125 C-2.625 0.125 -2.625 0.125 0 0 Z " fill="#404856" transform="translate(194.625,276.875)"/>
<path d="M0 0 C2.97 0.495 2.97 0.495 6 1 C6.33 1.99 6.66 2.98 7 4 C4.625 3.6875 4.625 3.6875 2 3 C1.34 2.01 0.68 1.02 0 0 Z " fill="#3D4351" transform="translate(419,268)"/>
</svg>
