<svg version="1.1" xmlns="http://www.w3.org/2000/svg"  viewBox="0 0 484 484" width="484" height="484"><path d="M0 0 C159.72 0 319.44 0 484 0 C484 159.72 484 319.44 484 484 C324.28 484 164.56 484 0 484 C0 324.28 0 164.56 0 0 Z " transform="translate(0,0)" style="fill: #43434F;"></path><path d="M0 0 C76.23 0 152.46 0 231 0 C231 0.33 231 0.66 231 1 C229.99324219 1.03738281 228.98648438 1.07476562 227.94921875 1.11328125 C201.52066642 2.26955032 172.05196114 7.12752816 148.54101562 19.74829102 C146.00766711 20.99622317 143.51142322 21.91109573 140.8359375 22.80859375 C135.16015883 24.84032915 130.07227106 27.46519509 124.875 30.5 C123.97410645 31.02118408 123.07321289 31.54236816 122.14501953 32.0793457 C85.79790214 53.43720148 54.69083254 84.06868125 33.25 120.375 C32.62266968 121.43581787 32.62266968 121.43581787 31.98266602 122.51806641 C30.17822855 125.65227011 28.76392273 128.46951659 28 132 C27.34 132 26.68 132 26 132 C25.89558594 132.50789062 25.79117187 133.01578125 25.68359375 133.5390625 C24.74311812 136.92477477 23.39464972 140.12928271 22.0625 143.375 C20.21960054 147.87687606 18.48578876 152.36319062 17 157 C16.34 157 15.68 157 15 157 C14.89115479 157.59208252 14.78230957 158.18416504 14.67016602 158.79418945 C13.22882752 166.34045275 11.22235508 173.6673983 9.12304688 181.05273438 C8.00259811 185.06232035 6.91941777 188.97989585 6.37890625 193.11328125 C6 196 6 196 5 197 C2.08146903 214.85195594 1.49332166 232.95755328 2 251 C2.01015137 251.7233252 2.02030273 252.44665039 2.03076172 253.19189453 C2.47777889 284.80463496 12.25659843 317.92939709 26.87304688 345.8359375 C28.08479522 348.16283034 29.26950168 350.50243563 30.453125 352.84375 C35.01810463 361.79776092 39.77672018 370.07053498 46 378 C47.41694711 379.93729492 48.83360061 381.8748046 50.25 383.8125 C63.8832056 401.84351385 79.4536393 418.95147905 98 432 C99.05445312 432.76441406 100.10890625 433.52882813 101.1953125 434.31640625 C107.81968301 439.0332773 114.62017405 443.20979387 121.71875 447.15234375 C124.6007202 448.77516745 127.39175193 450.48496285 130.1875 452.25 C135.18519782 455.29352313 140.44855136 457.20580557 146 459 C146 459.66 146 460.32 146 461 C146.72815918 461.132854 147.45631836 461.26570801 148.20654297 461.40258789 C150.80314317 461.95789996 153.19290508 462.67943211 155.6953125 463.55859375 C156.5704248 463.86112061 157.44553711 464.16364746 158.34716797 464.4753418 C159.72219482 464.95161011 159.72219482 464.95161011 161.125 465.4375 C167.50285863 467.60779635 173.66129728 469.58173863 180.34765625 470.54296875 C183.74464245 471.128311 186.99488423 472.06617775 190.3125 473 C206.78066464 477.48828398 223.69597291 478.21017048 240.6875 478.1875 C241.73923904 478.18759064 241.73923904 478.18759064 242.81222534 478.18768311 C253.67389769 478.17439061 264.24909892 477.56598869 275 476 C276.74796875 475.83564453 276.74796875 475.83564453 278.53125 475.66796875 C297.31364499 473.77726306 315.70196038 467.33919229 333 460 C334.70542969 459.27876953 334.70542969 459.27876953 336.4453125 458.54296875 C356.26202708 449.94120802 374.17569604 439.59585644 391 426 C391.87140625 425.33226562 392.7428125 424.66453125 393.640625 423.9765625 C406.48910452 413.93628359 418.08336287 401.92225881 428 389 C429.15628906 387.58654297 429.15628906 387.58654297 430.3359375 386.14453125 C438.7543161 375.66803169 446.09567482 364.08307195 452 352 C452.66 352 453.32 352 454 352 C454.12955078 350.78763672 454.12955078 350.78763672 454.26171875 349.55078125 C455.18816789 345.09500207 456.90872876 341.30254819 458.8125 337.1875 C459.15603516 336.43146484 459.49957031 335.67542969 459.85351562 334.89648438 C461.25744256 331.8067915 462.66962629 328.72089659 464.08349609 325.63574219 C468.8131676 315.18529508 471.57616494 304.14380341 474.44848633 293.06274414 C474.85928906 291.52628009 475.28930787 289.99492877 475.72924805 288.46655273 C482.69818034 264.01146373 484.42075318 233.04625373 479 208 C478.67 207.67 478.34 207.34 478 207 C477.85884839 204.32941149 477.95752893 201.67567762 478 199 C477.34 199 476.68 199 476 199 C475.89042969 198.02160156 475.78085937 197.04320312 475.66796875 196.03515625 C474.88965219 189.46727154 474.03749373 183.18024312 471.7109375 176.94921875 C471 175 471 175 470.125 171.375 C461.28371453 135.00353296 439.76340251 101.68627066 414 75 C413.42668945 74.40477539 412.85337891 73.80955078 412.26269531 73.19628906 C405.74036953 66.45999962 399.24848821 60.03907488 391.6953125 54.453125 C391.13585937 53.97359375 390.57640625 53.4940625 390 53 C390 52.34 390 51.68 390 51 C389.44699219 50.91105469 388.89398438 50.82210937 388.32421875 50.73046875 C385.31675369 49.78526545 383.32338147 48.21468293 380.8125 46.3125 C363.20099908 33.22633839 343.64356976 23.40392041 323 16 C321.76894531 15.54625 320.53789062 15.0925 319.26953125 14.625 C311.76919791 11.84648113 311.76919791 11.84648113 304 10 C304 9.34 304 8.68 304 8 C303.113125 8.061875 302.22625 8.12375 301.3125 8.1875 C294.59029593 8.20121878 287.53266171 6.33805264 281.27734375 3.96875 C276.61402911 2.59032088 271.95794782 2.2744713 267.125 1.875 C266.15046875 1.78863281 265.1759375 1.70226562 264.171875 1.61328125 C261.78173554 1.40238659 259.39122375 1.19815363 257 1 C257 0.67 257 0.34 257 0 C331.91 0 406.82 0 484 0 C484 159.72 484 319.44 484 484 C324.28 484 164.56 484 0 484 C0 324.28 0 164.56 0 0 Z " transform="translate(0,0)" style="fill: #FCFDFD;"></path><path d="M0 0 C1.00212021 -0.00960754 2.00424042 -0.01921509 3.03672791 -0.02911377 C4.12103592 -0.03336365 5.20534393 -0.03761353 6.32250977 -0.04199219 C8.00474388 -0.0505423 8.00474388 -0.0505423 9.72096252 -0.05926514 C12.10074927 -0.06872123 14.48054915 -0.07525153 16.86035156 -0.07910156 C20.46842033 -0.08874558 24.07590435 -0.11973816 27.68383789 -0.15136719 C30.00089182 -0.15790367 32.3179498 -0.1631516 34.63500977 -0.16699219 C35.7010997 -0.17933899 36.76718964 -0.19168579 37.86558533 -0.20440674 C53.18428575 -0.15979403 66.76217611 4.71721905 78.07641602 15.16113281 C86.75566002 24.629399 91.45014354 36.04424956 91.26391602 48.78613281 C91.26294922 50.05457031 91.26294922 50.05457031 91.26196289 51.34863281 C91.23504859 55.14055897 91.1147287 58.49363634 90.07641602 62.16113281 C89.41641602 62.16113281 88.75641602 62.16113281 88.07641602 62.16113281 C88.03516602 62.94488281 87.99391602 63.72863281 87.95141602 64.53613281 C85.30717997 75.49082499 77.42397811 83.7681782 68.06860352 89.48535156 C59.80620591 94.11272568 52.64288773 97.32426473 43.12719727 97.25878906 C42.35458054 97.25737411 41.58196381 97.25595917 40.78593445 97.25450134 C38.32022212 97.24890747 35.85460086 97.23635614 33.38891602 97.22363281 C31.71639129 97.21861702 30.04386513 97.21405425 28.37133789 97.20996094 C24.27299555 97.19894005 20.17472122 97.18167966 16.07641602 97.16113281 C16.13140259 98.93774292 16.13140259 98.93774292 16.1875 100.75024414 C16.3152603 105.19110331 16.3949404 109.63180409 16.4609375 114.07397461 C16.49590178 115.98766494 16.54349203 117.90117157 16.60449219 119.81420898 C17.19880601 138.94711852 17.19880601 138.94711852 10.88525391 147.40209961 C7.99452348 150.21323643 5.18801 150.33917765 1.32641602 150.41113281 C-3.41613869 150.33519671 -6.79529313 149.67048608 -10.92358398 147.16113281 C-15.14337708 142.52484066 -17.04342507 138.4059493 -17.06402588 132.09526062 C-17.06973602 131.04803833 -17.07544617 130.00081604 -17.08132935 128.92185974 C-17.0824472 127.77322952 -17.08356506 126.6245993 -17.0847168 125.44116211 C-17.0896817 124.23116547 -17.09464661 123.02116882 -17.09976196 121.77450562 C-17.11187138 118.45412223 -17.11932901 115.13380182 -17.12377262 111.81340384 C-17.12670516 109.73806026 -17.13081032 107.66272218 -17.13527679 105.58738136 C-17.14894947 99.09151443 -17.15861708 92.59566011 -17.16247869 86.09977978 C-17.16695813 78.6061333 -17.18450154 71.11266933 -17.21347928 63.61907834 C-17.23511077 57.82363916 -17.24518376 52.02825128 -17.2465198 46.23277217 C-17.24756685 42.77287929 -17.25345292 39.31315803 -17.27133942 35.85330772 C-17.29091356 31.9919079 -17.28652526 28.13073534 -17.2800293 24.26928711 C-17.28924408 23.12672958 -17.29845886 21.98417206 -17.30795288 20.80699158 C-17.27402824 14.37627877 -16.95828509 9.48824001 -12.42358398 4.51660156 C-8.15968709 1.19653601 -5.33969819 0.04138804 0 0 Z " transform="translate(274.923583984375,162.8388671875)" style="fill: #FAFAFA;"></path><path d="M0 0 C1.05957916 -0.0038269 2.11915833 -0.00765381 3.21084595 -0.01159668 C5.45160879 -0.01431198 7.69240354 -0.00697766 9.93310547 0.00976562 C13.306415 0.03096626 16.67754225 0.01006081 20.05078125 -0.015625 C40.74814528 -0.04093709 57.95878177 1.89917907 73.26953125 16.73046875 C81.8515436 25.60969365 85.6825824 36.27306596 85.4765625 48.53125 C85.49976563 49.91183594 85.49976563 49.91183594 85.5234375 51.3203125 C85.4565907 63.18561922 79.92063785 74.34899741 71.734375 82.86328125 C65.03542044 88.94196224 58.69197704 93.09093393 49.9765625 95.53125 C48.15874268 96.04220215 48.15874268 96.04220215 46.30419922 96.56347656 C42.22317802 97.57608165 38.41073455 97.76055784 34.1953125 97.7265625 C33.49635864 97.7237326 32.79740479 97.72090271 32.07727051 97.71798706 C29.87684934 97.7069227 27.67685757 97.68184606 25.4765625 97.65625 C23.97136011 97.64620235 22.46615124 97.63707965 20.9609375 97.62890625 C17.29934312 97.60702893 13.63799482 97.57259696 9.9765625 97.53125 C9.99227295 98.74184082 10.0079834 99.95243164 10.02416992 101.19970703 C10.07861219 105.70598658 10.11296457 110.21223724 10.14135742 114.71875 C10.15641149 116.66639094 10.1768593 118.61399816 10.20288086 120.56152344 C10.23941303 123.36662128 10.25632283 126.17126954 10.26953125 128.9765625 C10.28501511 129.84241974 10.30049896 130.70827698 10.31645203 131.60037231 C10.31804711 137.37551205 9.52588124 141.73629378 5.4765625 146.17578125 C0.4328012 150.10308497 -3.66392279 151.21845031 -10.0234375 150.53125 C-16.01420152 148.59487451 -19.11176602 145.02835527 -22.0234375 139.53125 C-22.97483142 135.25442444 -22.95242079 131.13082182 -22.8815918 126.76293945 C-22.88903915 125.51305237 -22.89648651 124.26316528 -22.90415955 122.97540283 C-22.91695455 119.57163237 -22.89868744 116.17087768 -22.86492133 112.76744103 C-22.83586629 109.19484153 -22.84367532 105.62229665 -22.84638977 102.04960632 C-22.84540237 96.05518183 -22.81707602 90.06137885 -22.77124023 84.06713867 C-22.7185578 77.14647478 -22.70457563 70.22658334 -22.7122733 63.30574065 C-22.71919732 56.6309025 -22.70331213 49.95632436 -22.67551613 43.28154564 C-22.66384112 40.44793652 -22.65926722 37.61444904 -22.66031456 34.78081703 C-22.66016491 30.82405373 -22.62622393 26.86796976 -22.58862305 22.91137695 C-22.59200684 21.74084274 -22.59539062 20.57030853 -22.59887695 19.36430359 C-22.50883745 13.13284976 -22.28721932 9.22341673 -18.0234375 4.53125 C-12.19296846 0.07074122 -7.18530975 -0.05793384 0 0 Z " transform="translate(149.0234375,162.46875)" style="fill: #FBFBFB;"></path><path d="M0 0 C4.08375 -0.0825 8.1675 -0.165 12.375 -0.25 C14.27451416 -0.30462402 14.27451416 -0.30462402 16.21240234 -0.36035156 C24.64153142 -0.44204705 31.84564981 0.52163412 38.47265625 6.0703125 C38.99730469 6.74835938 39.52195313 7.42640625 40.0625 8.125 C40.88427734 9.14980469 40.88427734 9.14980469 41.72265625 10.1953125 C44.95508267 14.76222689 44.52015656 19.57864998 44 25 C41.87238896 32.2460353 37.364932 36.07718171 30.9375 39.75 C26.42062948 41.67207256 22.36389496 42.12493796 17.48046875 42.09765625 C16.55903076 42.09515869 15.63759277 42.09266113 14.68823242 42.09008789 C13.53299072 42.08098389 12.37774902 42.07187988 11.1875 42.0625 C5.6496875 42.0315625 5.6496875 42.0315625 0 42 C0 28.14 0 14.28 0 0 Z " transform="translate(159,191)" style="fill: #4A4955;"></path><path d="M0 0 C6.125625 -0.1546875 6.125625 -0.1546875 12.375 -0.3125 C13.64134277 -0.35802002 14.90768555 -0.40354004 16.21240234 -0.45043945 C25.49460393 -0.56289383 31.98456619 1.48649542 39 7.625 C43.34834786 12.78866308 43.41968694 16.10410109 43.32421875 22.69140625 C42.74071275 28.64597953 40.40815484 33.01079417 36 37 C28.39862524 41.40245515 20.94666773 41.49649407 12.375 41.25 C8.29125 41.1675 4.2075 41.085 0 41 C0 27.47 0 13.94 0 0 Z " transform="translate(291,191)" style="fill: #474551;"></path><path d="M0 0 C0.33 0 0.66 0 1 0 C5.05722956 22.02496046 5.69443071 50.21285355 0 72 C-0.99 72.99 -0.99 72.99 -2 74 C-1.34 63.77 -0.68 53.54 0 43 C0.66 43 1.32 43 2 43 C1.86160047 38.87471501 1.7130259 34.74985892 1.5625 30.625 C1.52318359 29.449375 1.48386719 28.27375 1.44335938 27.0625 C1.40146484 25.94101563 1.35957031 24.81953125 1.31640625 23.6640625 C1.27974854 22.62717285 1.24309082 21.5902832 1.20532227 20.52197266 C1.15835777 18.00574834 1.15835777 18.00574834 0 16 C-0.07181821 13.28239892 -0.09299506 10.59140612 -0.0625 7.875 C-0.05798828 7.12089844 -0.05347656 6.36679688 -0.04882812 5.58984375 C-0.03703499 3.72652873 -0.01909942 1.86325445 0 0 Z " transform="translate(479,208)" style="fill: #9999A0;"></path><path d="M0 0 C2.0357824 4.07156479 3.12165065 6.51124928 3.0625 11.125 C3.05347656 12.03507813 3.04445313 12.94515625 3.03515625 13.8828125 C3.02355469 14.58148438 3.01195312 15.28015625 3 16 C2.67 16 2.34 16 2 16 C2 13.36 2 10.72 2 8 C1.34 8 0.68 8 0 8 C0 5.36 0 2.72 0 0 Z " transform="translate(476,191)" style="fill: #B2B0B8;"></path><path d="M0 0 C0.66 0.99 1.32 1.98 2 3 C0.68 5.31 -0.64 7.62 -2 10 C-2.66 10 -3.32 10 -4 10 C-2.8905928 6.51329166 -1.73662334 3.22515763 0 0 Z " transform="translate(458,340)" style="fill: #C3C3C8;"></path><path d="M0 0 C-1.28519565 2.86697492 -2.57129254 4.97607712 -5 7 C-5.66 7 -6.32 7 -7 7 C-3.86206897 0 -3.86206897 0 0 0 Z " transform="translate(267,165)" style="fill: #DEDDE1;"></path><path d="M0 0 C4.05606165 0.46800711 7.46588679 0.87953208 11 3 C3.49230769 3.36923077 3.49230769 3.36923077 1 1.5 C0.67 1.005 0.34 0.51 0 0 Z " transform="translate(176,470)" style="fill: #AEADB4;"></path></svg>